<?xml version="1.0" standalone="no"?>
<!DOCTYPE svg PUBLIC "-//W3C//DTD SVG 20010904//EN"
 "http://www.w3.org/TR/2001/REC-SVG-20010904/DTD/svg10.dtd">
<svg version="1.0" xmlns="http://www.w3.org/2000/svg"
 width="852.000000pt" height="852.000000pt" viewBox="0 0 852.000000 852.000000"
 preserveAspectRatio="xMidYMid meet">
<metadata>
Created by potrace 1.14, written by Peter Selinger 2001-2017
</metadata>
<g transform="translate(0.000000,852.000000) scale(0.100000,-0.100000)"
fill="#000000" stroke="none">
<path d="M4037 8134 c-1 -1 -36 -5 -77 -9 -70 -6 -134 -12 -205 -20 -16 -1
-30 -4 -30 -5 0 -1 -16 -3 -35 -5 -19 -2 -51 -7 -70 -11 -19 -4 -42 -8 -50 -9
-35 -4 -118 -21 -122 -25 -2 -1 -12 -3 -23 -5 -37 -5 -79 -15 -155 -35 -41
-12 -80 -22 -87 -24 -7 -1 -15 -5 -19 -8 -3 -4 -12 -4 -20 -1 -8 3 -14 0 -14
-6 0 -6 -3 -10 -7 -9 -5 1 -28 -4 -53 -11 -25 -7 -47 -13 -50 -13 -3 0 -14 -5
-25 -11 -11 -6 -27 -12 -35 -14 -9 -1 -32 -9 -53 -18 -20 -8 -39 -15 -42 -14
-4 0 -18 -7 -32 -16 -16 -11 -22 -12 -17 -4 4 7 -8 2 -27 -11 -19 -14 -36 -24
-39 -23 -8 4 -70 -20 -70 -27 0 -3 -10 -6 -22 -7 -11 -1 -24 -6 -27 -11 -3 -5
-18 -12 -33 -16 -16 -3 -28 -11 -28 -16 0 -6 -6 -10 -14 -10 -16 0 -78 -31
-87 -43 -3 -5 -10 -9 -15 -9 -18 -1 -74 -32 -74 -40 0 -5 -4 -6 -10 -3 -5 3
-10 1 -10 -5 0 -6 -4 -9 -8 -6 -5 3 -18 -2 -28 -12 -11 -9 -26 -18 -34 -20 -8
-2 -20 -10 -26 -17 -6 -8 -14 -12 -17 -8 -4 3 -7 1 -7 -5 0 -7 -3 -11 -8 -10
-11 3 -82 -43 -82 -53 0 -5 -3 -8 -7 -7 -13 4 -83 -43 -83 -54 0 -6 -3 -8 -7
-5 -3 4 -12 -1 -20 -11 -9 -10 -12 -11 -7 -2 4 8 -8 2 -27 -15 -19 -16 -35
-33 -37 -38 -2 -4 -7 -5 -12 -2 -5 3 -17 -6 -29 -20 -11 -15 -22 -26 -25 -25
-12 1 -85 -58 -79 -64 3 -3 -1 -6 -9 -6 -8 0 -36 -19 -62 -43 -25 -24 -48 -41
-51 -39 -3 3 -5 -2 -5 -11 0 -9 -5 -19 -12 -23 -7 -5 -9 -2 -3 7 4 8 -8 -3
-28 -23 -19 -20 -38 -34 -41 -31 -3 4 -6 -1 -6 -10 0 -9 -5 -19 -12 -23 -7 -5
-8 -2 -3 7 4 8 -3 3 -17 -11 -13 -14 -23 -28 -21 -31 1 -3 -9 -11 -23 -18 -14
-6 -23 -14 -21 -19 2 -4 -8 -18 -21 -32 -14 -14 -22 -19 -18 -12 4 6 5 12 2
12 -3 0 -12 -13 -21 -30 -9 -16 -23 -30 -32 -30 -9 0 -14 -3 -10 -6 3 -3 -11
-22 -31 -41 -20 -20 -30 -32 -22 -28 8 5 -5 -11 -30 -33 -25 -23 -41 -42 -37
-42 4 0 -8 -15 -28 -32 -19 -18 -35 -39 -35 -45 0 -7 -4 -13 -10 -13 -5 0 -10
-4 -10 -10 0 -5 -8 -18 -17 -28 -27 -28 -50 -58 -70 -89 -9 -15 -20 -30 -23
-33 -9 -8 -44 -65 -43 -70 0 -3 -7 -10 -16 -17 -9 -7 -13 -13 -9 -13 4 0 -6
-14 -22 -32 -16 -17 -28 -34 -25 -36 2 -2 -11 -26 -30 -52 -19 -26 -31 -51
-28 -54 4 -3 2 -6 -4 -6 -10 0 -38 -49 -35 -62 1 -5 -2 -8 -7 -8 -8 0 -52 -82
-51 -95 1 -3 -6 -13 -15 -21 -8 -9 -13 -20 -10 -25 4 -5 1 -9 -5 -9 -6 0 -9
-4 -6 -9 4 -5 3 -11 -1 -13 -11 -4 -49 -80 -46 -90 2 -4 -2 -8 -7 -8 -5 0 -9
-3 -8 -7 1 -5 -3 -18 -10 -30 -7 -13 -10 -23 -7 -23 4 0 -3 -13 -14 -29 -12
-16 -21 -33 -21 -39 0 -5 -14 -44 -31 -86 -17 -42 -32 -82 -33 -89 -2 -7 -8
-23 -13 -37 -6 -14 -9 -28 -6 -32 2 -5 0 -8 -5 -8 -9 0 -28 -65 -24 -82 1 -5
-3 -8 -8 -8 -6 0 -10 -8 -10 -19 0 -10 -6 -37 -14 -59 -8 -22 -17 -53 -19 -69
-3 -15 -10 -40 -16 -55 -6 -16 -9 -28 -6 -28 2 0 -2 -18 -10 -41 -8 -23 -12
-45 -9 -51 3 -5 1 -15 -5 -22 -7 -8 -11 -18 -10 -22 1 -5 0 -11 -1 -14 -1 -3
-4 -18 -5 -35 -2 -16 -6 -41 -9 -55 -6 -25 -12 -60 -21 -127 -3 -21 -8 -54
-11 -73 -25 -153 -36 -579 -20 -770 7 -92 15 -169 21 -210 3 -19 7 -51 9 -70
5 -47 23 -145 26 -145 1 0 3 -9 4 -20 4 -22 22 -118 31 -152 3 -13 7 -31 9
-40 2 -10 14 -54 26 -98 13 -44 25 -90 27 -103 3 -12 9 -25 14 -27 4 -3 6 -12
2 -20 -3 -8 -1 -15 4 -15 5 0 10 -6 11 -12 1 -21 9 -51 23 -83 6 -16 14 -39
16 -50 2 -10 9 -23 16 -27 6 -4 9 -8 5 -8 -8 0 21 -79 48 -134 8 -16 14 -35
14 -43 0 -7 4 -13 10 -13 5 0 9 -3 8 -7 -4 -12 36 -103 45 -103 5 0 6 -4 2 -9
-3 -5 1 -15 8 -23 7 -7 14 -16 15 -21 4 -22 55 -117 67 -127 8 -7 12 -17 9
-22 -4 -6 -3 -13 2 -17 12 -8 44 -61 51 -83 3 -10 9 -18 14 -18 5 0 9 -5 9
-11 0 -6 14 -30 30 -54 16 -24 30 -47 30 -52 0 -5 9 -15 19 -23 11 -7 18 -17
15 -22 -3 -4 5 -19 18 -32 13 -13 24 -30 26 -37 1 -8 14 -24 27 -35 13 -12 22
-24 19 -27 -3 -2 11 -22 32 -43 20 -22 36 -41 35 -44 -1 -5 53 -73 81 -102 10
-10 16 -18 13 -18 -3 0 8 -13 25 -30 16 -16 30 -33 30 -38 0 -5 35 -42 77 -82
42 -41 70 -70 62 -65 -12 8 -12 6 0 -8 7 -9 17 -14 22 -11 5 3 9 0 9 -6 0 -13
79 -90 93 -90 4 0 5 -5 2 -10 -3 -6 -1 -10 4 -10 6 0 23 -13 37 -30 15 -16 31
-27 37 -23 6 3 8 2 5 -3 -3 -5 0 -15 8 -22 8 -7 14 -11 14 -8 0 3 16 -10 35
-30 19 -19 35 -33 35 -30 0 3 16 -11 36 -30 20 -19 41 -34 47 -34 5 0 20 -10
32 -22 32 -34 64 -58 75 -58 6 0 10 -3 10 -8 0 -4 18 -18 40 -32 22 -14 40
-28 40 -33 0 -4 4 -6 9 -3 5 4 11 3 13 -1 1 -5 21 -21 42 -37 22 -16 36 -23
32 -15 -4 8 1 4 10 -9 9 -12 20 -22 25 -22 5 0 26 -11 47 -24 20 -12 41 -23
46 -24 5 0 12 -4 15 -10 7 -11 101 -64 101 -56 0 2 10 -4 22 -15 11 -11 25
-18 30 -15 4 3 8 1 8 -4 0 -9 37 -25 53 -23 4 1 7 -4 7 -10 0 -5 5 -7 10 -4 6
3 10 2 10 -4 0 -10 38 -27 53 -23 4 1 7 -2 7 -7 0 -5 12 -12 28 -16 15 -3 36
-14 46 -23 15 -13 17 -14 11 -2 -6 11 -3 10 12 -3 11 -9 27 -17 36 -17 9 0 17
-5 17 -10 0 -6 3 -9 8 -8 4 0 16 -2 27 -7 124 -48 196 -75 202 -75 5 0 21 -7
36 -15 18 -9 25 -10 20 -2 -4 7 0 7 10 -2 9 -7 17 -11 17 -7 0 4 12 -2 27 -11
15 -10 28 -17 30 -15 2 1 4 2 6 1 1 0 9 -2 17 -4 8 -2 69 -17 135 -35 65 -17
131 -33 145 -35 14 -2 25 -5 25 -6 0 -1 9 -3 20 -4 11 -2 34 -6 50 -10 42 -9
64 -13 110 -20 22 -3 52 -8 68 -11 15 -3 49 -7 75 -9 26 -2 58 -7 72 -10 73
-16 688 -25 802 -11 29 3 80 8 113 11 33 3 83 10 110 15 91 19 100 20 130 25
17 3 37 8 46 11 10 2 30 7 45 9 16 2 40 7 54 10 14 4 35 8 47 10 12 2 81 24
155 50 73 26 139 47 146 48 6 0 12 5 12 10 0 6 3 8 6 5 3 -4 36 5 72 19 37 13
81 29 97 35 17 6 35 15 41 19 6 5 14 6 17 2 4 -3 7 -1 7 6 0 7 4 10 9 6 5 -3
15 0 23 7 7 7 20 14 28 16 41 8 360 167 376 188 6 7 14 11 17 8 3 -4 13 0 21
7 37 34 51 44 53 39 1 -3 11 3 23 12 11 10 20 14 20 10 0 -4 5 1 11 11 5 9 17
17 25 17 14 0 26 8 64 42 10 9 20 14 23 12 2 -2 16 7 30 20 14 13 28 22 30 20
2 -2 16 7 31 21 15 14 31 25 35 25 5 0 16 11 27 24 10 14 21 23 25 20 4 -2 23
11 43 30 20 18 36 31 36 28 0 -3 11 7 25 22 13 14 27 26 31 26 6 0 39 29 136
122 21 20 38 33 38 30 1 -4 7 4 15 18 8 14 14 21 15 15 0 -5 9 4 20 20 11 17
20 26 20 22 0 -4 12 5 26 20 148 160 202 218 223 245 14 18 40 48 56 68 53 60
165 217 165 229 0 6 4 11 8 11 10 0 64 91 161 273 14 27 31 56 36 66 45 74
110 202 140 276 20 50 42 99 49 110 12 19 26 61 25 79 -1 5 3 12 8 15 8 6 30
59 38 91 2 8 13 41 24 73 11 31 17 57 14 57 -3 0 0 7 7 15 7 8 9 15 5 15 -4 0
-3 6 3 13 6 6 11 15 11 20 1 4 1 8 2 10 0 1 2 9 4 17 1 8 8 35 15 60 11 42 14
53 25 105 3 11 7 30 10 43 3 12 7 32 10 45 3 12 8 38 11 57 3 19 7 45 9 57 1
11 6 29 9 40 3 10 8 41 11 68 2 28 7 63 10 78 6 30 10 75 22 222 13 168 6 519
-12 670 -3 22 -7 60 -10 85 -6 59 -14 119 -21 150 -6 31 -13 68 -18 100 -5 29
-13 70 -27 125 -9 38 -15 66 -24 110 -2 11 -4 21 -5 23 -3 2 -4 6 -14 47 -4
17 -10 37 -12 45 -3 8 -5 16 -5 17 0 2 -6 18 -15 38 -8 19 -11 35 -8 35 4 0 2
6 -4 13 -6 6 -11 15 -11 19 -6 41 -15 68 -22 68 -5 0 -8 3 -7 8 2 12 -14 65
-30 97 -9 17 -16 35 -17 40 -1 6 -7 24 -15 40 -7 17 -14 33 -15 38 -2 4 -4 10
-5 15 -1 4 -2 10 -1 15 0 4 -4 7 -10 7 -5 0 -7 5 -4 10 3 6 1 10 -4 10 -6 0
-10 3 -9 8 1 4 -7 25 -17 47 -10 22 -19 42 -19 45 -4 16 -62 126 -69 128 -4 2
-5 8 -1 13 3 5 0 9 -7 9 -7 0 -9 3 -6 6 4 4 -2 19 -11 33 -10 14 -29 48 -43
74 -13 26 -32 56 -41 66 -9 11 -15 21 -12 24 2 2 -2 10 -11 17 -8 7 -15 16
-15 21 0 14 -142 219 -152 219 -5 0 -7 4 -4 8 3 5 -3 18 -14 29 -10 12 -16 24
-13 27 4 3 -1 6 -10 6 -9 0 -19 5 -23 12 -5 7 -3 8 6 3 7 -4 2 6 -11 24 -12
17 -26 31 -31 31 -4 0 -8 5 -8 11 0 7 -10 22 -22 34 -22 22 -51 56 -132 153
-20 24 -36 41 -36 37 0 -3 -7 0 -15 9 -8 8 -15 17 -15 20 0 8 -61 66 -70 66
-4 0 -14 8 -21 18 -13 16 -12 16 6 3 11 -8 2 3 -20 25 -22 21 -41 38 -43 38
-2 -1 -20 16 -41 37 -21 22 -43 39 -50 39 -7 0 -9 5 -6 10 3 6 3 10 -2 10 -4
0 -30 20 -58 45 -27 25 -55 45 -61 45 -7 0 -16 5 -20 12 -5 7 -2 9 7 4 8 -4 5
-1 -6 8 -11 8 -26 20 -32 26 -7 6 -13 9 -13 6 0 -3 -10 5 -23 17 -13 12 -34
29 -46 37 -13 8 -38 26 -57 40 -59 45 -119 85 -122 82 -1 -1 -12 7 -24 17 -11
11 -24 18 -28 16 -5 -3 -11 2 -14 11 -3 8 -10 12 -16 9 -5 -3 -10 -2 -10 2 0
9 -90 65 -102 64 -5 -1 -17 8 -28 19 -12 12 -25 18 -30 15 -6 -4 -10 -2 -10 3
0 8 -56 39 -74 40 -5 0 -12 4 -15 9 -6 10 -106 58 -106 52 0 -2 -14 6 -32 19
-17 12 -35 22 -40 22 -5 0 -29 10 -54 22 -24 11 -50 21 -56 21 -7 0 -13 4 -13
9 0 4 -3 7 -7 6 -8 -1 -51 15 -86 33 -10 6 -22 7 -27 4 -4 -3 -10 -1 -12 3 -2
7 -130 55 -178 67 -8 2 -28 8 -45 15 -16 6 -30 11 -30 10 0 -1 -27 6 -60 16
-33 10 -68 19 -77 20 -10 1 -21 3 -25 4 -5 2 -12 4 -18 5 -5 2 -12 4 -15 5
-10 3 -67 15 -125 25 -11 2 -20 4 -20 5 0 3 -26 8 -65 13 -14 2 -36 7 -50 10
-24 6 -80 14 -160 22 -19 2 -57 7 -85 10 -105 13 -167 16 -388 18 -125 2 -229
2 -230 1z m-2676 -6451 c13 -16 12 -17 -3 -4 -10 7 -18 15 -18 17 0 8 8 3 21
-13z"/>
</g>
</svg>
